<?xml version="1.0" standalone="no"?>
<!DOCTYPE svg PUBLIC "-//W3C//DTD SVG 20010904//EN"
 "http://www.w3.org/TR/2001/REC-SVG-20010904/DTD/svg10.dtd">
<svg version="1.0" xmlns="http://www.w3.org/2000/svg"
 width="1019.000000pt" height="679.000000pt" viewBox="0 0 1019.000000 679.000000"
 preserveAspectRatio="xMidYMid meet">

<g transform="translate(0.000000,679.000000) scale(0.100000,-0.100000)"
fill="#000000" stroke="none">
<path d="M0 6774 c0 -14 3 -14 15 -4 8 7 15 14 15 16 0 2 -7 4 -15 4 -8 0 -15
-7 -15 -16z"/>
<path d="M1448 5439 c-26 -15 -25 -85 1 -99 50 -26 101 1 101 55 0 46 -57 71
-102 44z"/>
<path d="M1623 5400 c2 -26 7 -36 22 -38 18 -4 19 -3 3 10 -9 7 -19 24 -21 38
-3 16 -5 13 -4 -10z"/>
<path d="M1687 5424 c-13 -13 -7 -52 8 -58 27 -10 46 5 43 33 -3 26 -35 41
-51 25z m41 -26 c-2 -13 -10 -23 -18 -23 -8 0 -16 10 -18 23 -3 17 2 22 18 22
16 0 21 -5 18 -22z"/>
<path d="M1770 5411 c-7 -15 -6 -23 6 -35 19 -19 26 -20 42 -4 17 17 15 28 -5
28 -14 0 -15 -2 -4 -9 9 -6 10 -11 2 -15 -16 -10 -31 2 -31 26 0 17 4 19 26
14 17 -5 23 -3 19 4 -10 17 -44 11 -55 -9z"/>
<path d="M1857 5423 c-12 -11 -8 -40 7 -52 28 -23 68 17 45 45 -12 15 -41 19
-52 7z m46 -17 c8 -20 -20 -43 -35 -28 -14 14 -3 42 16 42 7 0 16 -6 19 -14z"/>
<path d="M8670 4946 c0 -121 -2 -145 -16 -150 -8 -3 -12 -2 -9 4 3 6 -3 10
-14 10 -12 0 -21 -6 -21 -12 0 -9 -4 -8 -10 2 -5 8 -10 10 -10 4 0 -6 -7 -11
-15 -11 -8 0 -15 4 -15 9 0 4 -92 8 -205 8 -130 0 -205 -4 -205 -10 0 -5 -8
-10 -17 -10 -15 0 -16 2 -3 10 12 8 11 10 -7 10 -14 0 -23 -6 -23 -15 0 -13
50 -15 390 -15 245 0 390 4 390 10 0 5 -7 7 -16 3 -9 -3 -20 0 -25 8 -6 10 -9
10 -9 2 0 -7 -5 -13 -11 -13 -5 0 -7 5 -4 10 3 6 -3 10 -14 10 -10 0 -21 -5
-23 -10 -1 -6 -2 55 0 134 1 90 -2 147 -8 151 -7 4 -10 -46 -10 -144 0 -149 0
-151 -20 -139 -15 10 -25 10 -37 2 -17 -10 -18 -2 -15 137 3 103 0 149 -7 149
-7 0 -11 -47 -11 -144z m67 -152 c-3 -3 -12 -4 -19 -1 -8 3 -5 6 6 6 11 1 17
-2 13 -5z"/>
<path d="M8851 4943 c0 -92 4 -140 9 -128 12 28 12 262 0 270 -7 4 -10 -46 -9
-142z"/>
<path d="M8594 4955 c0 -71 1 -99 3 -62 2 37 2 96 0 130 -2 34 -3 4 -3 -68z"/>
<path d="M8942 5050 c0 -19 2 -27 5 -17 2 9 2 25 0 35 -3 9 -5 1 -5 -18z"/>
<path d="M3972 4568 l3 -463 428 -3 427 -2 0 465 0 465 -430 0 -430 0 2 -462z
m819 418 c2 -2 2 -193 -1 -423 l-5 -418 -100 0 -100 0 -3 38 c-2 21 -14 58
-28 82 -13 24 -24 46 -24 49 0 3 43 6 95 6 l95 0 -20 33 c-25 40 -25 47 0 47
20 0 20 1 -4 49 l-25 49 -63 -2 -63 -1 -24 -44 c-19 -35 -21 -45 -10 -52 10
-6 11 -11 2 -20 -10 -10 -41 37 -92 138 -4 7 -41 -53 -83 -135 -137 -264 -116
-242 -230 -242 -108 0 -98 -45 -98 424 0 227 3 416 7 419 7 7 767 10 774 3z"/>
<path d="M8940 4900 c0 -69 -4 -109 -9 -101 -7 11 -9 11 -14 0 -4 -12 -7 -11
-16 1 -9 13 -11 13 -11 -2 0 -11 8 -18 19 -18 10 0 33 -3 50 -6 27 -6 31 -4
31 15 0 11 -3 21 -7 21 -5 0 -7 36 -5 80 3 69 1 79 -12 74 -9 -3 -16 -1 -16 5
0 6 8 11 18 12 13 0 14 2 2 6 -8 3 -18 11 -22 17 -4 6 -8 -41 -8 -104z m27
-45 c0 -8 -4 -15 -9 -15 -10 0 -11 14 -1 23 9 10 10 9 10 -8z m13 -65 c0 -5
-4 -10 -10 -10 -5 0 -10 5 -10 10 0 6 5 10 10 10 6 0 10 -4 10 -10z"/>
<path d="M8045 4950 c-8 -47 3 -122 19 -132 7 -5 5 -8 -6 -8 -11 0 -18 -8 -18
-20 0 -11 4 -20 10 -20 5 0 7 7 4 15 -4 8 -1 15 5 15 8 0 10 -57 9 -192 l-2
-193 -3 173 c-2 95 -7 171 -12 168 -4 -3 -6 -173 -5 -379 l4 -374 -25 -13
c-18 -10 -28 -11 -36 -3 -7 7 -22 8 -39 3 -15 -4 -115 -5 -221 -1 -107 4 -198
3 -203 -1 -15 -12 -314 -10 -337 2 -17 9 -19 22 -19 100 0 73 -3 90 -15 90 -8
0 -15 -4 -15 -10 0 -5 5 -10 10 -10 6 0 9 -28 8 -67 l-2 -68 -3 63 c-5 87 -20
78 -16 -10 1 -42 -2 -77 -9 -85 -8 -10 -8 -17 1 -26 9 -9 14 -9 21 3 8 12 10
10 10 -7 0 -14 -6 -23 -15 -23 -8 0 -15 -4 -15 -10 0 -5 6 -7 13 -4 8 3 13 -4
14 -18 2 -17 0 -19 -7 -8 -13 22 -18 10 -12 -35 4 -32 6 -36 13 -20 6 15 8 16
8 4 1 -9 -6 -22 -14 -29 -8 -7 -15 -19 -15 -27 0 -13 3 -13 15 -3 13 11 15 4
15 -54 0 -42 -4 -65 -10 -61 -5 3 -10 -1 -10 -9 0 -9 6 -16 13 -17 6 0 3 -4
-8 -9 -11 -5 -14 -9 -7 -9 22 -2 13 -20 -14 -27 -19 -5 -22 -9 -12 -15 10 -7
9 -9 -4 -9 -9 0 -18 5 -20 12 -5 14 -38 4 -38 -12 0 -6 24 -10 55 -10 51 0 55
-2 54 -22 0 -22 -1 -22 -8 -3 -6 14 -10 1 -13 -45 -3 -48 0 -68 10 -77 8 -6
12 -18 9 -25 -4 -10 -6 -10 -6 0 -1 6 -5 12 -10 12 -5 0 -7 -9 -4 -19 3 -12
11 -17 19 -14 11 4 14 28 14 99 l0 94 429 0 c334 0 430 3 434 13 3 6 6 -13 7
-43 3 -94 14 -163 28 -168 9 -3 12 21 12 97 l0 101 435 0 435 0 0 -94 c0 -87
9 -120 28 -102 3 4 7 48 8 99 l1 92 57 3 c40 2 56 7 56 17 0 10 -16 15 -56 17
l-56 3 1 175 c0 96 0 178 1 182 0 4 7 5 15 2 8 -4 22 -1 30 6 12 10 18 10 30
0 12 -10 16 -9 21 4 4 9 3 20 -1 24 -4 4 -10 1 -12 -6 -4 -10 -8 -10 -19 -1
-11 9 -14 8 -14 -2 0 -10 -3 -10 -8 -3 -4 7 -15 13 -25 15 -15 4 -18 23 -23
184 -3 99 -10 182 -15 183 -5 2 -9 8 -9 13 0 4 7 6 15 3 18 -7 21 31 4 42 -8
4 -9 0 -4 -15 5 -16 3 -20 -9 -15 -9 3 -13 11 -9 17 4 7 0 8 -11 4 -10 -4 -21
-7 -24 -7 -4 0 0 -5 8 -10 13 -8 12 -10 -2 -10 -10 0 -18 6 -18 13 0 6 -11 12
-25 12 -16 0 -23 -5 -20 -12 2 -7 0 -13 -4 -13 -5 0 -12 6 -14 13 -4 10 -6 10
-6 0 -1 -8 -14 -13 -33 -12 -28 0 -30 2 -13 9 14 6 16 9 5 10 -27 4 -55 -2
-69 -13 -12 -9 -13 -9 -7 1 5 9 -2 12 -26 11 -31 -1 -32 -1 -8 -9 23 -7 23 -8
3 -9 -12 -1 -25 4 -28 9 -3 6 -11 10 -16 10 -6 0 -7 -4 -4 -10 3 -5 1 -10 -4
-10 -6 0 -11 5 -11 10 0 6 -15 10 -32 9 -31 -1 -32 -1 -8 -9 l25 -8 -27 -1
c-14 -1 -29 5 -31 12 -4 9 -6 8 -6 -2 -1 -11 -4 -11 -16 -1 -10 9 -15 9 -15 1
0 -6 -15 -11 -32 -10 -31 1 -32 1 -8 9 14 5 -60 8 -177 9 -152 1 -203 -2 -206
-11 -3 -8 -6 -6 -6 5 -1 11 6 17 19 17 22 0 22 0 25 140 l2 80 -30 0 -29 0 2
83 c6 172 1 267 -14 267 -9 0 -17 -15 -21 -40z m22 -77 c-2 -21 -4 -4 -4 37 0
41 2 58 4 38 2 -21 2 -55 0 -75z m8 -473 c-3 -5 -10 -10 -16 -10 -5 0 -9 5 -9
10 0 6 7 10 16 10 8 0 12 -4 9 -10z m183 -7 c-10 -2 -28 -2 -40 0 -13 2 -5 4
17 4 22 1 32 -1 23 -4z m175 0 c-7 -2 -19 -2 -25 0 -7 3 -2 5 12 5 14 0 19 -2
13 -5z m334 1 c-3 -3 -12 -4 -19 -1 -8 3 -5 6 6 6 11 1 17 -2 13 -5z m176
-206 c-4 -123 -10 -196 -17 -200 -6 -4 -21 -5 -33 -2 -13 4 -52 7 -88 8 -52 2
-62 0 -53 -11 8 -10 5 -13 -11 -13 -12 0 -20 4 -16 9 3 5 0 13 -6 17 -8 4 -9
3 -5 -4 5 -8 -5 -12 -33 -12 -23 0 -41 4 -41 8 0 11 -134 2 -138 -9 -2 -5 -18
-9 -35 -8 -29 0 -30 1 -9 9 12 5 22 11 22 12 0 2 -62 2 -137 1 -76 -2 -166 0
-200 3 l-63 6 0 189 0 189 434 0 434 0 -5 -192z m27 117 c0 -30 -3 -55 -7 -55
-5 0 -6 25 -5 55 5 71 12 71 12 0z m-3 -97 c-3 -8 -6 -5 -6 6 -1 11 2 17 5 13
3 -3 4 -12 1 -19z m-127 -228 c0 -5 -15 -10 -32 -9 -31 1 -32 1 -8 9 35 11 40
11 40 0z m-567 -7 c-7 -2 -21 -2 -30 0 -10 3 -4 5 12 5 17 0 24 -2 18 -5z
m330 0 c-7 -2 -21 -2 -30 0 -10 3 -4 5 12 5 17 0 24 -2 18 -5z m291 -3 c17 -6
27 -6 32 1 17 28 24 -30 23 -198 l-1 -182 -26 10 c-25 9 -26 8 -8 -6 17 -13
17 -15 4 -15 -9 0 -20 5 -23 10 -3 6 -12 10 -18 10 -7 0 -6 -4 3 -10 10 -6
-115 -10 -362 -10 -353 0 -378 1 -379 18 -1 9 -1 65 1 125 l2 107 -31 0 -31 0
0 65 0 65 403 0 c263 0 397 4 387 10 -19 12 -8 13 24 0z m-854 -47 c0 -24 3
-43 8 -43 4 0 6 -51 5 -112 -2 -62 -3 -124 -3 -138 0 -48 -21 -50 -459 -49
-236 0 -398 4 -386 9 18 8 17 9 -7 9 -15 1 -30 -3 -33 -9 -3 -5 -10 -10 -16
-10 -5 0 -9 5 -9 10 0 6 6 10 14 10 12 0 15 32 16 177 0 97 2 179 4 182 2 3
198 6 435 6 l431 1 0 -43z m1038 -340 c-10 -2 -26 -2 -35 0 -10 3 -2 5 17 5
19 0 27 -2 18 -5z m-1921 -130 c-2 -16 -4 -5 -4 22 0 28 2 40 4 28 2 -13 2
-35 0 -50z"/>
<path d="M8378 4328 c-16 -11 -28 -27 -28 -36 -1 -15 -2 -15 -14 1 -14 18 -14
18 -19 0 -4 -14 -5 -14 -6 5 0 12 -6 22 -11 22 -11 0 -2 -51 10 -60 4 -3 9
-17 12 -32 5 -24 2 -28 -18 -28 -19 0 -24 -5 -24 -25 0 -25 1 -25 81 -25 78 0
80 1 77 23 -2 12 -10 22 -18 22 -10 0 -16 12 -19 35 -4 33 -4 33 -11 10 l-8
-25 -1 24 c-1 14 6 32 15 42 8 9 14 29 12 42 l-3 26 -27 -21z m22 -12 c0 -3
-4 -8 -10 -11 -5 -3 -10 -1 -10 4 0 6 5 11 10 11 6 0 10 -2 10 -4z m-39 -89
c-10 -9 -11 -8 -5 6 3 10 9 15 12 12 3 -3 0 -11 -7 -18z"/>
<path d="M8850 4140 c0 -79 3 -141 6 -137 7 7 5 269 -1 276 -3 2 -5 -60 -5
-139z"/>
<path d="M8762 4244 c-7 -14 -8 -23 -2 -19 6 3 11 -35 13 -102 l3 -108 2 128
c1 70 0 127 -1 127 -2 0 -9 -12 -15 -26z"/>
<path d="M8635 4180 c-9 -16 -13 -30 -11 -30 3 0 12 14 21 30 9 17 13 30 11
30 -3 0 -12 -13 -21 -30z"/>
<path d="M8710 4150 c-17 -33 -28 -60 -25 -60 2 0 18 27 35 60 17 33 28 60 25
60 -2 0 -18 -27 -35 -60z"/>
<path d="M8606 4123 c-6 -14 -5 -15 5 -6 7 7 10 15 7 18 -3 3 -9 -2 -12 -12z"/>
<path d="M8575 4069 c-4 -6 -5 -12 -2 -15 2 -3 7 2 10 11 7 17 1 20 -8 4z"/>
<path d="M8655 4049 c-9 -17 -15 -33 -13 -35 3 -2 12 12 21 31 21 43 13 47 -8
4z"/>
<path d="M8781 3844 c0 -11 3 -14 6 -6 3 7 2 16 -1 19 -3 4 -6 -2 -5 -13z"/>
<path d="M8781 3784 c0 -11 3 -14 6 -6 3 7 2 16 -1 19 -3 4 -6 -2 -5 -13z"/>
<path d="M8763 3690 c0 -36 2 -50 4 -32 2 17 2 47 0 65 -2 17 -4 3 -4 -33z"/>
<path d="M8803 3690 c0 -36 2 -50 4 -32 2 17 2 47 0 65 -2 17 -4 3 -4 -33z"/>
<path d="M8843 3690 c0 -36 2 -50 4 -32 2 17 2 47 0 65 -2 17 -4 3 -4 -33z"/>
<path d="M8883 3690 c0 -36 2 -50 4 -32 2 17 2 47 0 65 -2 17 -4 3 -4 -33z"/>
<path d="M8923 3695 c0 -33 2 -45 4 -27 2 18 2 45 0 60 -2 15 -4 0 -4 -33z"/>
<path d="M8370 3599 l-105 -5 118 -2 c64 -1 117 2 117 6 0 5 -6 8 -12 8 -7 -1
-60 -3 -118 -7z"/>
<path d="M8520 3600 c0 -5 5 -10 11 -10 5 0 7 5 4 10 -3 6 -8 10 -11 10 -2 0
-4 -4 -4 -10z"/>
<path d="M8556 3602 c-2 -4 4 -8 15 -8 10 0 19 4 19 8 0 4 -6 8 -14 8 -8 0
-17 -4 -20 -8z"/>
<path d="M8610 3600 c0 -5 5 -10 10 -10 6 0 10 5 10 10 0 6 -4 10 -10 10 -5 0
-10 -4 -10 -10z"/>
<path d="M8811 3600 c-7 -4 1 -7 18 -8 17 0 31 1 31 3 0 7 -39 12 -49 5z"/>
<path d="M8208 3593 c6 -2 18 -2 25 0 6 3 1 5 -13 5 -14 0 -19 -2 -12 -5z"/>
<path d="M8713 3593 c9 -2 23 -2 30 0 6 3 -1 5 -18 5 -16 0 -22 -2 -12 -5z"/>
<path d="M7912 3860 c0 -14 2 -19 5 -12 2 6 2 18 0 25 -3 6 -5 1 -5 -13z"/>
<path d="M7873 3815 c0 -27 2 -38 4 -22 2 15 2 37 0 50 -2 12 -4 0 -4 -28z"/>
<path d="M7952 3805 c0 -16 2 -22 5 -12 2 9 2 23 0 30 -3 6 -5 -1 -5 -18z"/>
<path d="M7911 3784 c0 -11 3 -14 6 -6 3 7 2 16 -1 19 -3 4 -6 -2 -5 -13z"/>
<path d="M7853 3690 c0 -36 2 -50 4 -32 2 17 2 47 0 65 -2 17 -4 3 -4 -33z"/>
<path d="M7893 3690 c0 -36 2 -50 4 -32 2 17 2 47 0 65 -2 17 -4 3 -4 -33z"/>
<path d="M7933 3690 c0 -36 2 -50 4 -32 2 17 2 47 0 65 -2 17 -4 3 -4 -33z"/>
<path d="M7973 3690 c0 -36 2 -50 4 -32 2 17 2 47 0 65 -2 17 -4 3 -4 -33z"/>
<path d="M8013 3700 c0 -30 2 -43 4 -27 2 15 2 39 0 55 -2 15 -4 2 -4 -28z"/>
<path d="M7590 3600 l-285 -6 353 -1 c194 0 350 2 347 5 -7 8 -89 8 -415 2z"/>
<path d="M7238 3593 c6 -2 18 -2 25 0 6 3 1 5 -13 5 -14 0 -19 -2 -12 -5z"/>
<path d="M7961 4798 c-1 -14 7 -18 34 -18 24 0 35 5 35 15 0 9 -10 15 -26 15
-14 0 -23 -4 -19 -10 3 -5 2 -10 -4 -10 -5 0 -12 6 -14 13 -3 7 -6 5 -6 -5z"/>
<path d="M9007 4803 c-16 -16 -4 -23 38 -23 36 0 45 3 45 18 0 14 -2 15 -10 2
-9 -13 -10 -13 -10 0 0 13 -1 13 -10 0 -6 -10 -10 -11 -10 -2 0 13 -32 17 -43
5z"/>
<path d="M8951 4605 c0 -86 4 -153 9 -150 4 3 11 -1 13 -7 3 -7 6 60 6 150 1
137 -1 162 -14 162 -12 0 -15 -24 -14 -155z m16 93 c-2 -13 -4 -5 -4 17 -1 22
1 32 4 23 2 -10 2 -28 0 -40z m0 -210 c-2 -13 -4 -3 -4 22 0 25 2 35 4 23 2
-13 2 -33 0 -45z"/>
<path d="M8782 4650 c0 -14 2 -19 5 -12 2 6 2 18 0 25 -3 6 -5 1 -5 -13z"/>
<path d="M8822 4640 c0 -14 2 -19 5 -12 2 6 2 18 0 25 -3 6 -5 1 -5 -13z"/>
<path d="M8861 4644 c0 -11 3 -14 6 -6 3 7 2 16 -1 19 -3 4 -6 -2 -5 -13z"/>
<path d="M8782 4585 c0 -16 2 -22 5 -12 2 9 2 23 0 30 -3 6 -5 -1 -5 -18z"/>
<path d="M8862 4590 c0 -14 2 -19 5 -12 2 6 2 18 0 25 -3 6 -5 1 -5 -13z"/>
<path d="M8821 4584 c0 -11 3 -14 6 -6 3 7 2 16 -1 19 -3 4 -6 -2 -5 -13z"/>
<path d="M8763 4500 c0 -36 2 -50 4 -32 2 17 2 47 0 65 -2 17 -4 3 -4 -33z"/>
<path d="M8803 4500 c0 -36 2 -50 4 -32 2 17 2 47 0 65 -2 17 -4 3 -4 -33z"/>
<path d="M8843 4500 c0 -36 2 -50 4 -32 2 17 2 47 0 65 -2 17 -4 3 -4 -33z"/>
<path d="M8883 4500 c0 -36 2 -50 4 -32 2 17 2 47 0 65 -2 17 -4 3 -4 -33z"/>
<path d="M8923 4500 c0 -36 2 -50 4 -32 2 17 2 47 0 65 -2 17 -4 3 -4 -33z"/>
<path d="M7046 4511 c-11 -18 6 -39 35 -45 35 -7 35 -32 0 -29 -13 2 -20 -1
-16 -7 9 -15 41 -12 55 5 17 20 -3 45 -36 45 -31 0 -32 27 -1 33 19 4 19 4 -5
6 -15 0 -29 -3 -32 -8z"/>
<path d="M7015 4461 c14 -42 5 -64 -23 -54 -10 4 -13 2 -8 -5 10 -16 31 -15
45 2 10 11 9 24 0 55 -7 23 -16 41 -20 41 -5 0 -2 -17 6 -39z"/>
<path d="M7201 4414 c0 -11 3 -14 6 -6 3 7 2 16 -1 19 -3 4 -6 -2 -5 -13z"/>
<path d="M7977 4403 c-15 -14 -6 -23 23 -23 20 0 30 5 30 15 0 15 -40 21 -53
8z m40 -9 c-3 -3 -12 -4 -19 -1 -8 3 -5 6 6 6 11 1 17 -2 13 -5z"/>
<path d="M9000 4395 c0 -11 12 -15 50 -15 38 0 50 4 50 15 0 11 -12 15 -50 15
-38 0 -50 -4 -50 -15z m73 -2 c-13 -2 -33 -2 -45 0 -13 2 -3 4 22 4 25 0 35
-2 23 -4z"/>
<path d="M7940 4139 c0 -91 4 -138 10 -134 6 4 10 62 10 141 0 83 -4 134 -10
134 -6 0 -10 -54 -10 -141z"/>
<path d="M7864 4145 c0 -71 1 -99 3 -62 2 37 2 96 0 130 -2 34 -3 4 -3 -68z"/>
<path d="M8034 4145 c0 -71 1 -99 3 -62 2 37 2 96 0 130 -2 34 -3 4 -3 -68z"/>
<path d="M7718 4083 c23 -2 61 -2 85 0 23 2 4 4 -43 4 -47 0 -66 -2 -42 -4z"/>
<path d="M7610 4003 c107 -7 238 -7 233 0 -2 4 -66 6 -141 5 -75 -1 -117 -3
-92 -5z"/>
<path d="M7055 3991 c-8 -15 3 -31 21 -31 9 0 14 7 12 17 -4 20 -24 28 -33 14z"/>
<path d="M7101 3974 c0 -11 3 -14 6 -6 3 7 2 16 -1 19 -3 4 -6 -2 -5 -13z"/>
<path d="M1355 3928 c-4 -9 -5 -40 -3 -69 3 -51 5 -54 31 -57 46 -5 77 22 77
67 0 45 -14 60 -64 68 -26 4 -37 2 -41 -9z m72 -16 c6 -4 14 -19 18 -33 8 -32
-15 -59 -51 -59 -22 0 -24 4 -24 50 0 45 2 50 23 50 12 0 27 -4 34 -8z"/>
<path d="M1850 3870 c0 -40 4 -70 10 -70 6 0 10 30 10 70 0 40 -4 70 -10 70
-6 0 -10 -30 -10 -70z"/>
<path d="M2672 3875 c-2 -70 -2 -70 26 -72 36 -2 52 13 52 48 0 31 -28 53 -54
43 -10 -4 -16 3 -19 23 -2 15 -5 -3 -5 -42z m63 -16 c4 -13 2 -27 -7 -35 -21
-21 -53 4 -44 34 9 28 43 29 51 1z"/>
<path d="M2404 3913 c3 -10 10 -39 17 -65 6 -27 15 -48 19 -48 4 0 14 24 22
53 l15 52 12 -52 c7 -29 16 -53 21 -53 4 0 15 26 24 58 19 67 19 75 7 68 -5
-4 -12 -24 -16 -46 -8 -48 -21 -44 -30 10 -9 52 -22 51 -37 -4 -14 -53 -24
-51 -33 4 -4 22 -11 40 -17 40 -5 0 -7 -8 -4 -17z"/>
<path d="M2860 3920 c0 -5 5 -10 10 -10 6 0 10 5 10 10 0 6 -4 10 -10 10 -5 0
-10 -4 -10 -10z"/>
<path d="M2908 3903 c-8 -37 7 -98 25 -101 9 -2 17 1 17 7 0 6 -4 11 -10 11
-5 0 -10 14 -10 30 0 17 5 30 10 30 6 0 5 8 -2 20 -16 25 -24 25 -30 3z"/>
<path d="M1506 3897 c-12 -9 -17 -23 -14 -47 2 -27 9 -37 31 -44 23 -8 31 -6
49 12 13 12 17 22 11 22 -7 0 -15 -4 -18 -10 -10 -16 -55 -12 -55 5 0 11 11
15 40 15 44 0 52 16 24 44 -19 19 -44 20 -68 3z m62 -24 c2 -9 -7 -13 -27 -13
-30 0 -39 9 -24 24 11 10 46 3 51 -11z"/>
<path d="M1610 3899 c1 -25 39 -101 49 -95 13 8 45 95 38 102 -3 4 -14 -13
-24 -37 l-17 -43 -16 37 c-19 43 -30 56 -30 36z"/>
<path d="M1737 3892 c-22 -24 -21 -55 1 -75 23 -21 56 -22 72 -2 17 21 7 29
-18 14 -21 -13 -52 -7 -52 11 0 5 18 10 40 10 33 0 40 3 40 20 0 19 -27 40
-53 40 -8 0 -21 -8 -30 -18z m63 -17 c0 -10 -10 -15 -30 -15 -29 0 -38 9 -23
23 13 13 53 7 53 -8z"/>
<path d="M1909 3889 c-14 -14 -18 -27 -14 -42 16 -52 69 -60 94 -16 13 24 13
29 -2 53 -21 31 -50 33 -78 5z m66 -34 c0 -25 -4 -31 -26 -33 -29 -3 -44 18
-33 50 4 14 13 18 32 16 23 -2 27 -8 27 -33z"/>
<path d="M2032 3825 c0 -44 3 -66 5 -48 4 29 7 32 32 27 33 -7 61 16 61 51 0
35 -26 55 -66 52 l-34 -2 2 -80z m73 30 c0 -23 -5 -31 -21 -33 -27 -4 -47 21
-39 48 5 16 14 20 33 18 23 -2 27 -8 27 -33z"/>
<path d="M2170 3890 c-11 -11 -20 -26 -20 -33 0 -21 30 -57 49 -57 23 0 58 26
48 36 -4 5 -12 3 -16 -5 -10 -15 -53 -11 -59 7 -2 8 9 12 37 12 34 0 41 3 41
20 0 18 -26 40 -49 40 -6 0 -20 -9 -31 -20z m64 -15 c4 -12 -3 -15 -29 -15
-33 0 -43 8 -28 23 12 13 51 7 57 -8z"/>
<path d="M2280 3853 c0 -29 5 -53 10 -53 6 0 10 18 10 40 0 33 4 42 23 50 25
10 24 11 -15 14 -27 2 -28 0 -28 -51z"/>
<path d="M2576 3884 c-9 -8 -16 -24 -16 -34 0 -38 58 -67 76 -38 5 8 2 9 -9 5
-19 -7 -47 1 -47 13 0 5 14 11 30 15 31 7 38 23 18 43 -16 16 -33 15 -52 -4z
m49 -14 c4 -6 -5 -10 -19 -10 -14 0 -26 5 -26 10 0 6 9 10 19 10 11 0 23 -4
26 -10z"/>
<path d="M2793 3893 c-20 -7 -15 -33 10 -54 20 -17 15 -25 -15 -20 -5 0 -8 -4
-8 -10 0 -6 10 -9 23 -7 30 4 36 44 8 53 -27 8 -27 25 0 25 11 0 17 5 14 10
-7 11 -13 11 -32 3z"/>
<path d="M2988 3889 c-21 -12 -24 -59 -6 -77 15 -15 58 -16 58 -1 0 5 -4 7
-10 4 -12 -7 -54 14 -45 23 4 4 18 7 33 7 31 1 38 17 17 39 -19 19 -24 19 -47
5z m42 -19 c0 -5 -9 -10 -20 -10 -11 0 -20 5 -20 10 0 6 9 10 20 10 11 0 20
-4 20 -10z"/>
<path d="M2860 3844 c0 -27 4 -43 10 -39 6 3 10 24 10 46 0 21 -4 39 -10 39
-5 0 -10 -21 -10 -46z"/>
<path d="M5121 3808 c0 -9 -4 -25 -7 -35 -5 -17 -5 -17 6 0 6 10 9 25 7 35 -4
15 -5 15 -6 0z"/>
<path d="M5146 3795 c-3 -8 -1 -15 4 -15 6 0 10 7 10 15 0 8 -2 15 -4 15 -2 0
-6 -7 -10 -15z"/>
<path d="M5220 3780 c0 -5 5 -10 10 -10 6 0 10 5 10 10 0 6 -4 10 -10 10 -5 0
-10 -4 -10 -10z"/>
<path d="M5266 3782 c-2 -4 -1 -14 5 -22 7 -12 9 -10 9 8 0 23 -5 28 -14 14z"/>
<path d="M5181 3764 c0 -11 3 -14 6 -6 3 7 2 16 -1 19 -3 4 -6 -2 -5 -13z"/>
<path d="M7134 3746 c-3 -14 -1 -33 5 -43 8 -15 10 -10 11 25 0 47 -6 55 -16
18z"/>
<path d="M5291 3744 c0 -11 3 -14 6 -6 3 7 2 16 -1 19 -3 4 -6 -2 -5 -13z"/>
<path d="M3455 3660 c-4 -7 -3 -16 3 -22 14 -14 47 -6 47 12 0 18 -40 26 -50
10z"/>
<path d="M3377 3653 c-4 -3 -7 -22 -7 -42 0 -27 -3 -32 -12 -23 -20 20 -75 14
-98 -10 -27 -30 -28 -100 0 -128 22 -22 79 -27 98 -8 9 9 12 9 12 0 0 -7 11
-12 25 -12 l25 0 0 115 c0 105 -2 115 -18 115 -10 0 -22 -3 -25 -7z m-13 -109
c12 -31 6 -63 -15 -74 -43 -24 -92 43 -57 78 17 17 65 15 72 -4z"/>
<path d="M1340 3540 c0 -103 1 -110 20 -110 17 0 20 7 20 40 0 39 1 40 35 40
41 0 85 36 85 70 0 12 -11 32 -25 45 -20 21 -34 25 -80 25 l-55 0 0 -110z
m108 43 c3 -17 -3 -26 -23 -33 -34 -13 -45 -6 -45 31 0 28 2 30 33 27 24 -2
33 -8 35 -25z"/>
<path d="M2841 3624 c-51 -43 -54 -122 -6 -170 36 -36 111 -34 148 4 15 15 27
33 27 38 0 16 -37 10 -58 -9 -23 -21 -66 -22 -86 -1 -9 8 -16 32 -16 53 0 64
57 94 100 51 21 -21 60 -27 60 -9 0 6 -13 24 -29 40 -39 39 -96 40 -140 3z"/>
<path d="M5100 3646 c0 -2 8 -10 18 -17 15 -13 16 -12 3 4 -13 16 -21 21 -21
13z"/>
<path d="M1530 3515 c0 -78 2 -85 20 -85 17 0 20 7 20 49 0 51 17 81 46 81 8
0 14 9 14 20 0 22 -12 25 -41 10 -13 -7 -19 -7 -19 0 0 5 -9 10 -20 10 -18 0
-20 -7 -20 -85z"/>
<path d="M1675 3575 c-31 -30 -33 -82 -4 -119 16 -20 29 -26 60 -26 53 0 75
13 88 52 14 39 -1 93 -29 108 -35 19 -89 12 -115 -15z m103 -57 c3 -25 -20
-58 -39 -58 -14 0 -49 39 -49 55 0 8 9 24 21 36 18 18 23 19 42 6 12 -8 23
-26 25 -39z"/>
<path d="M1871 3574 c-28 -35 -28 -93 -1 -122 23 -24 78 -30 98 -10 17 17 24
5 16 -26 -8 -33 -47 -45 -73 -22 -21 19 -51 21 -51 3 0 -37 73 -66 119 -47 41
16 51 48 51 155 0 87 -2 95 -19 95 -11 0 -21 -6 -24 -12 -4 -10 -7 -10 -18 0
-24 22 -75 15 -98 -14z m108 -36 c17 -46 -14 -83 -56 -67 -49 18 -35 89 18 89
21 0 32 -6 38 -22z"/>
<path d="M2070 3515 c0 -78 2 -85 20 -85 17 0 20 7 20 45 0 44 24 85 50 85 6
0 10 9 10 20 0 23 -19 26 -39 8 -11 -10 -14 -10 -18 0 -3 6 -13 12 -24 12 -17
0 -19 -8 -19 -85z"/>
<path d="M2211 3574 c-43 -55 -12 -144 50 -144 17 0 39 5 50 10 13 7 19 7 19
0 0 -5 9 -10 20 -10 18 0 20 7 20 85 0 77 -2 85 -19 85 -11 0 -21 -6 -24 -12
-4 -10 -7 -10 -18 0 -24 22 -75 15 -98 -14z m109 -34 c22 -42 -14 -86 -57 -69
-18 6 -23 16 -23 42 0 41 5 47 41 47 18 0 32 -7 39 -20z"/>
<path d="M2410 3515 c0 -84 0 -85 25 -85 23 0 24 4 27 63 3 62 3 62 33 62 30
0 30 0 33 -62 3 -59 4 -63 27 -63 23 0 24 4 27 63 3 56 5 62 26 65 38 6 52
-15 52 -74 0 -47 2 -54 20 -54 18 0 20 7 20 63 0 77 -18 107 -62 107 -17 0
-39 -7 -49 -16 -17 -15 -19 -15 -34 0 -19 19 -66 21 -84 4 -11 -10 -14 -10
-18 0 -3 6 -13 12 -24 12 -17 0 -19 -8 -19 -85z"/>
<path d="M3066 3579 c-21 -16 -26 -29 -26 -63 0 -57 30 -86 88 -86 62 0 89 35
82 105 -6 60 -91 86 -144 44z m102 -58 c4 -23 -23 -61 -41 -61 -19 0 -47 33
-47 56 0 13 10 30 22 38 19 13 25 14 43 2 11 -7 21 -23 23 -35z"/>
<path d="M3460 3515 c0 -78 2 -85 20 -85 18 0 20 7 20 85 0 78 -2 85 -20 85
-18 0 -20 -7 -20 -85z"/>
<path d="M3540 3515 c0 -84 0 -85 25 -85 24 0 25 3 25 58 0 76 27 104 64 66
11 -10 16 -34 16 -70 0 -47 2 -54 20 -54 18 0 20 7 20 63 0 78 -17 107 -64
107 -17 0 -37 -5 -44 -12 -9 -9 -12 -9 -12 0 0 7 -11 12 -25 12 -25 0 -25 -1
-25 -85z"/>
<path d="M3764 3579 c-12 -14 -19 -36 -19 -64 0 -57 25 -85 76 -85 21 0 39 6
42 13 2 6 8 9 12 4 5 -4 4 -20 -1 -35 -11 -32 -53 -42 -74 -18 -13 17 -50 22
-50 7 0 -5 9 -19 19 -32 15 -19 29 -24 66 -24 73 0 85 22 85 151 0 96 -2 104
-19 104 -11 0 -21 -6 -24 -12 -4 -10 -7 -10 -18 0 -21 19 -74 15 -95 -9z m107
-41 c22 -41 -21 -89 -61 -68 -30 16 -28 78 3 89 27 10 45 4 58 -21z"/>
<path d="M4831 3279 c1 -8 -1 -22 -6 -32 -9 -20 10 -71 24 -63 4 3 6 -6 3 -20
-2 -14 -11 -28 -18 -31 -19 -7 -18 -23 1 -23 8 0 21 13 29 29 10 17 36 39 67
55 51 25 51 26 26 35 -14 5 -28 19 -32 30 -3 12 -12 21 -19 21 -8 0 -28 3 -46
6 -24 5 -31 3 -29 -7z m33 -34 c5 -22 4 -26 -4 -15 -5 8 -10 24 -10 34 0 26 6
18 14 -19z m40 17 c-5 -4 -12 -11 -15 -15 -3 -5 -9 -2 -12 5 -3 9 3 14 15 15
11 1 16 -1 12 -5z m-54 -57 c0 -5 -5 -3 -10 5 -5 8 -10 20 -10 25 0 6 5 3 10
-5 5 -8 10 -19 10 -25z m55 15 c3 -5 -1 -10 -9 -10 -9 0 -16 5 -16 10 0 6 4
10 9 10 6 0 13 -4 16 -10z"/>
<path d="M5968 3214 c-38 -20 -79 -105 -86 -176 -4 -55 -3 -58 17 -58 12 0 33
-11 47 -25 32 -32 44 -32 44 0 0 14 9 33 20 42 11 10 20 27 20 40 0 26 14 31
109 37 84 5 101 1 101 -24 0 -30 19 -33 30 -5 23 61 -2 124 -65 160 -36 21
-54 25 -126 25 -55 -1 -94 -6 -111 -16z"/>
<path d="M9280 3080 c0 -5 5 -10 11 -10 5 0 7 5 4 10 -3 6 -8 10 -11 10 -2 0
-4 -4 -4 -10z"/>
<path d="M8087 3069 c-32 -19 -38 -55 -22 -125 19 -82 20 -73 -16 -128 -61
-91 -56 -153 19 -260 47 -67 51 -91 26 -187 -19 -75 -8 -151 32 -223 36 -65
73 -184 74 -236 l0 -45 -92 -3 c-51 -1 -94 -4 -95 -6 -2 -2 7 -52 20 -112 l23
-109 52 -28 c29 -16 52 -31 52 -35 0 -4 -1008 -6 -2240 -4 l-2240 2 0 -71 0
-71 868 4 c477 2 1454 7 2172 11 718 4 1337 7 1375 7 39 0 65 4 58 8 -6 4 37
6 95 4 l107 -3 42 197 c24 109 41 199 40 200 -1 2 -45 4 -97 6 -94 4 -95 4
-93 28 2 14 2 68 1 120 -5 263 -1 298 47 405 31 67 58 199 51 240 -4 18 -15
44 -26 58 -28 36 -38 67 -49 157 -6 45 -19 101 -30 125 -30 68 -103 103 -154
74z m107 -196 c40 -127 45 -231 19 -465 -15 -134 -15 -169 -5 -240 30 -198 34
-252 21 -283 -12 -28 -13 -22 -20 76 -4 58 -12 123 -18 145 -16 56 -14 219 5
378 17 146 10 257 -21 360 -17 57 -19 76 -6 76 5 0 16 -21 25 -47z m-4226
-1320 c-21 -2 -57 -2 -80 0 -24 2 -7 4 37 4 44 0 63 -2 43 -4z m4157 -3 c3 -6
-1 -7 -9 -4 -18 7 -21 14 -7 14 6 0 13 -4 16 -10z m-4302 -7 c-13 -2 -33 -2
-45 0 -13 2 -3 4 22 4 25 0 35 -2 23 -4z m2360 0 c-387 -2 -1019 -2 -1405 0
-387 1 -71 2 702 2 773 0 1089 -1 703 -2z m845 0 c-10 -2 -28 -2 -40 0 -13 2
-5 4 17 4 22 1 32 -1 23 -4z m819 0 c-137 -2 -357 -2 -490 0 -133 1 -21 2 248
2 270 0 378 -1 242 -2z m313 -8 c0 -8 -4 -15 -10 -15 -5 0 -7 7 -4 15 4 8 8
15 10 15 2 0 4 -7 4 -15z m-817 -12 c-13 -2 -35 -2 -50 0 -16 2 -5 4 22 4 28
0 40 -2 28 -4z m772 -3 c-3 -5 -11 -10 -16 -10 -6 0 -7 5 -4 10 3 6 11 10 16
10 6 0 7 -4 4 -10z m-1098 -6 c-3 -3 -12 -4 -19 -1 -8 3 -5 6 6 6 11 1 17 -2
13 -5z m-974 -31 c-68 -2 -178 -2 -245 0 -68 1 -13 3 122 3 135 0 190 -2 123
-3z m655 0 c-10 -2 -28 -2 -40 0 -13 2 -5 4 17 4 22 1 32 -1 23 -4z m185 0
c-29 -2 -78 -2 -110 0 -32 2 -8 3 52 3 61 0 87 -1 58 -3z m270 0 c-7 -2 -19
-2 -25 0 -7 3 -2 5 12 5 14 0 19 -2 13 -5z m215 0 c-32 -2 -84 -2 -115 0 -32
2 -6 3 57 3 63 0 89 -1 58 -3z m235 0 c-29 -2 -78 -2 -110 0 -32 2 -8 3 52 3
61 0 87 -1 58 -3z m200 0 c-24 -2 -62 -2 -85 0 -24 2 -5 4 42 4 47 0 66 -2 43
-4z m-2220 -20 c-13 -2 -33 -2 -45 0 -13 2 -3 4 22 4 25 0 35 -2 23 -4z m480
0 c-57 -2 -149 -2 -205 0 -57 1 -11 3 102 3 113 0 159 -2 103 -3z m530 0 c-7
-2 -19 -2 -25 0 -7 3 -2 5 12 5 14 0 19 -2 13 -5z m110 0 c-13 -2 -33 -2 -45
0 -13 2 -3 4 22 4 25 0 35 -2 23 -4z m379 0 c-40 -2 -103 -2 -140 0 -37 2 -4
3 73 3 77 0 107 -2 67 -3z m266 0 c-26 -2 -71 -2 -100 0 -29 2 -8 3 47 3 55 0
79 -1 53 -3z m565 0 c-7 -2 -21 -2 -30 0 -10 3 -4 5 12 5 17 0 24 -2 18 -5z
m-1560 -10 c-29 -2 -77 -2 -105 0 -29 2 -6 3 52 3 58 0 81 -1 53 -3z m115 0
c-10 -2 -26 -2 -35 0 -10 3 -2 5 17 5 19 0 27 -2 18 -5z"/>
<path d="M9280 2075 c0 -544 2 -986 5 -983 7 6 7 1960 0 1966 -3 3 -5 -439 -5
-983z"/>
<path d="M1467 2981 c-68 -14 -130 -78 -143 -148 -15 -79 50 -179 131 -202 27
-7 199 -11 515 -11 440 0 478 2 515 19 73 33 105 86 105 169 0 61 -26 109 -79
147 l-43 30 -481 2 c-265 0 -499 -2 -520 -6z m913 -162 l0 -60 -42 3 c-39 3
-43 6 -46 31 -4 36 15 60 45 54 17 -3 23 0 23 14 0 11 5 19 10 19 6 0 10 -27
10 -61z m-772 39 c7 -7 12 -29 12 -50 0 -31 -4 -39 -24 -44 -38 -9 -59 -1 -75
27 -13 24 -13 29 2 53 19 28 63 36 85 14z m160 -5 c12 -12 13 -18 4 -21 -16
-5 -16 -49 1 -55 9 -3 9 -8 1 -16 -15 -17 -44 12 -39 39 2 11 0 22 -6 25 -5 4
-5 14 1 26 13 23 17 24 38 2z m129 1 c6 -15 7 -15 19 1 12 16 14 16 30 1 12
-13 14 -20 5 -29 -14 -14 -15 -47 -1 -47 6 0 10 -4 10 -10 0 -5 -9 -10 -20
-10 -16 0 -20 7 -20 34 0 29 -4 36 -31 45 -38 13 -39 13 -39 3 0 -5 11 -14 25
-20 28 -13 34 -49 10 -58 -20 -8 -65 4 -65 17 0 7 12 8 31 4 37 -8 32 11 -7
25 -23 9 -32 38 -17 53 13 14 64 7 70 -9z m281 -1 c12 -12 13 -18 4 -21 -14
-4 -16 -52 -2 -52 6 0 10 -5 10 -11 0 -6 -10 -9 -22 -7 -18 2 -24 11 -26 36
-4 35 -3 35 -26 26 -10 -4 -16 -18 -16 -36 0 -19 -4 -28 -12 -25 -8 2 -13 20
-13 42 0 37 2 39 30 40 17 0 34 6 38 13 10 16 15 15 35 -5z m-470 -15 c20 -20
15 -66 -9 -78 -26 -14 -69 11 -69 40 0 39 51 65 78 38z m352 -35 l0 -44 -42 3
c-39 3 -43 6 -46 31 -5 38 13 57 54 55 33 -1 34 -2 34 -45z m214 23 c8 -14 8
-20 -3 -23 -10 -4 -11 -7 -1 -13 20 -12 2 -30 -30 -30 -44 0 -64 44 -34 75 21
20 53 16 68 -9z"/>
<path d="M2314 2815 c-7 -18 3 -35 21 -35 21 0 28 19 15 35 -16 19 -29 19 -36
0z"/>
<path d="M1552 2838 c-29 -29 -3 -69 36 -53 15 6 14 8 -8 18 l-25 11 28 4 c23
3 26 6 16 18 -14 17 -31 18 -47 2z"/>
<path d="M1665 2820 c-3 -5 1 -10 9 -10 9 0 16 5 16 10 0 6 -4 10 -9 10 -6 0
-13 -4 -16 -10z"/>
<path d="M1668 2783 c7 -3 16 -2 19 1 4 3 -2 6 -13 5 -11 0 -14 -3 -6 -6z"/>
<path d="M1994 2815 c-7 -18 3 -35 21 -35 18 0 26 25 12 39 -15 15 -27 14 -33
-4z"/>
<path d="M2225 2820 c-3 -5 3 -10 15 -10 12 0 18 5 15 10 -3 6 -10 10 -15 10
-5 0 -12 -4 -15 -10z"/>
<path d="M2220 2790 c0 -6 7 -10 15 -10 8 0 15 2 15 4 0 2 -7 6 -15 10 -8 3
-15 1 -15 -4z"/>
<path d="M6574 2899 c-6 -11 -53 -174 -90 -316 -9 -35 -19 -63 -23 -63 -3 0
-19 25 -36 56 -16 31 -38 60 -47 65 -12 6 -18 22 -18 42 0 58 -21 108 -61 148
-23 23 -43 38 -47 34 -12 -12 -42 -101 -42 -126 0 -21 8 -28 52 -44 29 -10 47
-20 41 -22 -6 -2 -26 3 -42 12 -43 22 -131 11 -124 -15 3 -11 -14 -34 -53 -69
-32 -28 -61 -51 -65 -51 -11 0 -88 119 -95 147 -6 23 -2 65 12 125 5 23 2 28
-19 33 -14 4 -57 2 -97 -4 -39 -6 -139 -16 -221 -21 -214 -15 -244 -35 -221
-149 28 -133 4 -513 -42 -664 -15 -52 -11 -60 31 -52 15 2 83 8 150 11 l123 7
20 34 c10 18 27 33 36 33 29 0 237 -40 266 -51 20 -8 46 -6 105 7 43 10 100
18 128 18 l49 1 23 100 c32 138 31 136 53 90 11 -22 25 -48 32 -57 10 -14 8
-33 -11 -100 -37 -137 -39 -145 -30 -159 7 -11 9 -9 9 5 0 25 257 961 270 987
11 20 -3 28 -16 8z m-709 -158 c-12 -11 -116 -33 -123 -26 -3 3 -1 5 4 5 5 1
32 7 59 15 61 17 72 18 60 6z m-130 -51 c-3 -5 -14 -10 -25 -10 -10 0 -20 -6
-23 -14 -4 -9 -15 -12 -33 -8 -26 5 -26 6 17 22 51 21 73 24 64 10z m619 -46
c8 -21 -7 -17 -21 6 -11 16 -10 18 1 14 8 -3 17 -12 20 -20z m-605 -109 c0 -5
-4 -3 -9 5 -5 8 -9 22 -9 30 0 16 17 -16 18 -35z m181 25 c0 -5 -5 -10 -11
-10 -5 0 -7 5 -4 10 3 6 8 10 11 10 2 0 4 -4 4 -10z m170 0 c0 -5 -2 -10 -4
-10 -3 0 -8 5 -11 10 -3 6 -1 10 4 10 6 0 11 -4 11 -10z m-300 -19 c0 -6 -4
-13 -10 -16 -5 -3 -10 1 -10 9 0 9 5 16 10 16 6 0 10 -4 10 -9z m-60 -105 c0
-3 -4 -8 -10 -11 -5 -3 -10 -1 -10 4 0 6 5 11 10 11 6 0 10 -2 10 -4z m597
-18 c-3 -8 -6 -5 -6 6 -1 11 2 17 5 13 3 -3 4 -12 1 -19z m-626 -59 l-10 -24
0 26 c-1 14 2 29 6 33 12 12 14 -9 4 -35z m449 -19 c0 -5 -2 -10 -4 -10 -3 0
-8 5 -11 10 -3 6 -1 10 4 10 6 0 11 -4 11 -10z m107 4 c-3 -3 -12 -4 -19 -1
-8 3 -5 6 6 6 11 1 17 -2 13 -5z m-590 -96 c-2 -13 -4 -3 -4 22 0 25 2 35 4
23 2 -13 2 -33 0 -45z m60 6 c-3 -3 -12 -4 -19 -1 -8 3 -5 6 6 6 11 1 17 -2
13 -5z m334 -35 c-5 -13 -10 -19 -10 -12 -1 15 10 45 15 40 3 -2 0 -15 -5 -28z
m-94 -21 c-3 -7 -5 -2 -5 12 0 14 2 19 5 13 2 -7 2 -19 0 -25z m-327 -28 c0
-5 -5 -10 -11 -10 -5 0 -7 5 -4 10 3 6 8 10 11 10 2 0 4 -4 4 -10z m317 -12
c-3 -8 -6 -5 -6 6 -1 11 2 17 5 13 3 -3 4 -12 1 -19z m212 -102 c-9 -19 -15
-23 -21 -14 -11 18 -10 30 2 23 6 -3 13 1 16 10 4 9 8 14 11 12 2 -3 -2 -16
-8 -31z m-402 8 c-3 -3 -12 -4 -19 -1 -8 3 -5 6 6 6 11 1 17 -2 13 -5z m60
-20 c-3 -3 -12 -4 -19 -1 -8 3 -5 6 6 6 11 1 17 -2 13 -5z m220 0 c-3 -3 -12
-4 -19 -1 -8 3 -5 6 6 6 11 1 17 -2 13 -5z m83 2 c0 -2 -9 -6 -20 -9 -11 -3
-18 -1 -14 4 5 9 34 13 34 5z m-227 -13 c-7 -2 -19 -2 -25 0 -7 3 -2 5 12 5
14 0 19 -2 13 -5z"/>
<path d="M4179 2809 c-9 -17 -7 -30 6 -60 10 -21 21 -36 26 -34 4 3 11 0 15
-6 5 -8 3 -9 -5 -5 -9 6 -12 -1 -9 -25 2 -24 9 -35 22 -37 17 -4 18 0 13 32
-3 22 -2 34 4 31 5 -4 13 5 18 18 6 14 15 28 20 32 19 11 12 34 -8 28 -19 -5
-36 21 -25 38 3 5 -11 9 -30 9 -26 0 -38 -6 -47 -21z"/>
<path d="M4943 2343 c-28 -28 -29 -50 -5 -76 12 -13 17 -36 17 -72 0 -29 3
-51 7 -49 12 8 17 79 10 149 l-7 70 -22 -22z"/>
<path d="M6983 2317 c16 -60 88 -529 94 -603 5 -77 5 -82 -16 -94 -24 -12 -93
-2 -265 41 -90 22 -93 22 -80 10 5 -5 79 -25 164 -46 152 -37 155 -37 187 -20
22 12 33 26 33 40 0 22 -16 133 -65 440 -14 88 -28 179 -32 203 -3 23 -10 45
-16 49 -6 4 -8 -4 -4 -20z"/>
<path d="M3951 2033 c1 -96 -2 -138 -10 -137 -28 3 -32 5 -25 17 5 9 4 9 -6 0
-8 -7 -11 -15 -7 -19 9 -9 87 -11 87 -2 0 4 -6 8 -12 9 -7 0 1 7 17 14 17 8
24 14 18 15 -18 0 -16 20 13 121 14 49 24 95 22 101 -2 6 -17 -33 -32 -88 -15
-54 -30 -107 -33 -117 -11 -42 -17 1 -14 109 2 80 0 114 -9 114 -8 0 -11 -40
-9 -137z"/>
<path d="M4094 1990 c-15 -33 -33 -60 -40 -60 -8 0 -14 -4 -14 -10 0 -5 -12
-10 -27 -10 -35 0 -19 -15 25 -24 24 -4 34 -2 39 10 5 13 7 13 14 2 7 -10 89
-14 411 -16 455 -4 428 2 428 -84 l0 -48 33 7 c67 12 72 25 92 212 7 60 6 64
-11 56 -32 -14 -151 -18 -184 -7 -30 11 -30 11 -30 -24 l0 -34 -251 0 c-226 0
-254 -2 -277 -18 -22 -15 -41 -18 -108 -14 l-80 4 17 51 c10 28 15 55 13 59
-11 18 -24 5 -50 -52z m746 -71 c0 -10 -4 -19 -10 -19 -5 0 -10 12 -10 26 0
14 4 23 10 19 6 -3 10 -15 10 -26z"/>
<path d="M6230 1971 c0 -4 11 -14 25 -21 20 -10 28 -11 37 -2 7 7 10 12 7 12
-2 0 -19 4 -37 9 -17 5 -32 6 -32 2z"/>
<path d="M5203 1880 c3 -12 -1 -24 -11 -30 -15 -8 -15 -11 -2 -20 13 -8 13
-10 -2 -10 -10 0 -18 4 -18 9 0 5 -8 12 -17 14 -13 3 -12 5 5 6 31 1 18 21
-14 21 -17 0 -23 -4 -18 -12 4 -7 3 -8 -4 -4 -18 11 -37 -4 -21 -16 10 -7 7
-7 -8 -3 -17 5 -25 0 -37 -24 -24 -45 -20 -69 18 -107 49 -49 106 -45 144 10
26 38 29 100 8 151 -16 38 -32 48 -23 15z"/>
<path d="M5336 1878 c-9 -36 -7 -93 3 -82 14 14 25 104 13 104 -5 0 -12 -10
-16 -22z"/>
<path d="M5895 1861 c3 -5 68 -30 144 -56 l140 -46 223 41 c204 38 256 50 217
50 -8 0 -109 -18 -223 -39 l-209 -40 -138 50 c-139 50 -165 56 -154 40z"/>
<path d="M6750 1780 c-124 -26 -227 -49 -230 -50 -3 -1 -8 -2 -12 -1 -15 2 -8
-30 8 -36 17 -6 494 85 508 98 12 11 -12 39 -33 38 -9 -1 -117 -23 -241 -49z"/>
<path d="M5440 1750 c0 -17 7 -20 40 -20 33 0 40 3 40 20 0 17 -7 20 -40 20
-33 0 -40 -3 -40 -20z"/>
<path d="M5670 1750 c0 -17 7 -20 45 -20 38 0 45 3 45 20 0 17 -7 20 -45 20
-38 0 -45 -3 -45 -20z"/>
<path d="M6002 1720 c-45 -10 -48 -16 -8 -17 18 -1 51 -10 74 -22 23 -12 52
-21 64 -22 22 -1 22 -1 -2 -9 -24 -7 -23 -7 12 -14 43 -9 74 -1 82 20 9 24 1
31 -66 47 -87 22 -118 25 -156 17z m91 -17 c-7 -2 -19 -2 -25 0 -7 3 -2 5 12
5 14 0 19 -2 13 -5z m71 -9 c9 -3 16 -12 16 -20 0 -8 5 -14 11 -14 5 0 7 5 4
10 -3 6 -1 10 5 10 18 0 6 -22 -17 -31 -17 -6 -20 -4 -16 11 4 14 -1 17 -19
15 -14 -1 -16 -1 -4 2 16 4 17 7 5 14 -16 10 -8 12 15 3z m-57 -10 c-3 -3 -12
-4 -19 -1 -8 3 -5 6 6 6 11 1 17 -2 13 -5z"/>
<path d="M5980 1686 c0 -2 7 -7 16 -10 8 -3 12 -2 9 4 -6 10 -25 14 -25 6z"/>
<path d="M7343 1018 l14 -23 905 0 c825 0 906 1 929 17 14 9 36 18 50 21 13 2
-412 5 -945 6 l-968 1 15 -22z"/>
</g>
</svg>
